<svg version="1.1" width="3677.666666666667" viewBox="0 0 2596 2596" height="3677.666666666667" xmlns="http://www.w3.org/2000/svg" xmlns:xlink="http://www.w3.org/1999/xlink" style="cursor: default;">
<g id="layerGroup" transform="translate(978,978)"><g id="obj_1"><g id="obj_3" transform="matrix(1,0,0,1,20.823,130)" opacity="1" display="inline"><path d="M 18.001 0 L 42 0 C 51.936 0 60 8.063 60 17.999 L 60 41.999 C 60 51.936 51.936 60 42 60 L 18.001 60 C 8.064 60 0 51.936 0 41.999 L 0 17.999 C 0 8.063 8.064 0 18.001 0 Z " fill-opacity="1" fill="#000000" stroke-opacity="1" stroke="#000000" stroke-width="1" stroke-linecap="square" stroke-linejoin="miter" fill-rule="nozero"></path><defs><filter id="obj_3_filter" x="-135%" y="-135%" width="370%" height="370%" filterUnits="objectBoundingBox"><feGaussianBlur result="lightBevel" in="SourceGraphic" stdDeviation="4.4"></feGaussianBlur><feSpecularLighting result="specOut0" in="lightBevel" surfaceScale="45" specularConstant="0.75" specularExponent="30" lighting-color="#FFFFFF"><feDistantLight result="specOut0" azimuth="231" elevation="0"></feDistantLight></feSpecularLighting><feComposite result="specOut0" operator="in" in="specOut0" in2="SourceAlpha"></feComposite><feComposite result="specOut0" operator="arithmetic" in="SourceGraphic" in2="specOut0" k1="0" k2="1" k3="1" k4="0"></feComposite><feBlend result="specOut0" mode="multiply" in="specOut0" in2="specOut0"></feBlend></filter></defs></g><g id="obj_4" transform="matrix(1,0,0,1,100.823,130)" opacity="1" display="inline"><path d="M 18.001 0 L 42 0 C 51.936 0 60 8.063 60 17.999 L 60 41.999 C 60 51.936 51.936 60 42 60 L 18.001 60 C 8.064 60 0 51.936 0 41.999 L 0 17.999 C 0 8.063 8.064 0 18.001 0 Z " fill-opacity="1" fill="#000000" stroke-opacity="1" stroke="#000000" stroke-width="1" stroke-linecap="square" stroke-linejoin="miter" fill-rule="nozero"></path><defs><filter id="obj_4_filter" x="-135%" y="-135%" width="370%" height="370%" filterUnits="objectBoundingBox"><feGaussianBlur result="lightBevel" in="SourceGraphic" stdDeviation="4.4"></feGaussianBlur><feSpecularLighting result="specOut0" in="lightBevel" surfaceScale="45" specularConstant="0.75" specularExponent="30" lighting-color="#FFFFFF"><feDistantLight result="specOut0" azimuth="231" elevation="0"></feDistantLight></feSpecularLighting><feComposite result="specOut0" operator="in" in="specOut0" in2="SourceAlpha"></feComposite><feComposite result="specOut0" operator="arithmetic" in="SourceGraphic" in2="specOut0" k1="0" k2="1" k3="1" k4="0"></feComposite><feBlend result="specOut0" mode="multiply" in="specOut0" in2="specOut0"></feBlend></filter></defs></g><g id="obj_5" transform="matrix(1,0,0,1,41.824,150)" opacity="1" display="inline"><path d="M 48.9995 0 C 73.185 0 93.3651 17.1802 97.999 40 L 85.1514 40 C 80.7749 24.1444 66.2465 12.5 48.9995 12.5 C 31.7525 12.5 17.2241 24.1444 12.8476 40 L 0 40 C 4.6339 17.1802 24.814 0 48.9995 0 Z " fill-opacity="1" fill="#000000" stroke-opacity="1" stroke="#000000" stroke-width="1" stroke-linecap="square" stroke-linejoin="miter"></path><defs></defs></g><g id="obj_6" transform="matrix(1,0,0,1,37.294,203.882)" opacity="1" display="inline"><path fill-opacity="1" fill="#000000" stroke-opacity="1" stroke="#000000" stroke-width="1" stroke-linecap="square" stroke-linejoin="miter" d="M 9.177 0 L 33.412 8.995 L 102.412 3.022 L 107.059 8.995 L 33.412 20.941 L 0 6.465 L 9.177 0 Z "></path><defs></defs></g><g id="obj_7" transform="matrix(1,0,0,1,0,0)" opacity="1" display="inline"><path fill-opacity="1" fill="#000000" stroke-opacity="1" stroke="#000000" stroke-width="1" stroke-linecap="square" stroke-linejoin="miter" d="M 16.353 160 L 16.353 126.824 L 37.411 110 L 76.353 120 L 100.823 120 L 136.353 110 L 166.353 120 L 166.353 160 L 183.529 130 L 176.353 90 L 156.353 60 L 150.353 70 L 139.823 32.941 L 139.823 70 L 120.706 20 L 120.706 36.471 L 100.823 4 L 86.353 0 L 80.823 32.941 L 72 24.471 L 56.353 66.118 L 50.823 32.941 L 36.353 70 L 26.353 60 L 6.353 80 L 0 130 L 16.353 160 Z "></path><defs></defs></g><g id="obj_8" transform="matrix(1,0,0,1,16.353,73.882)" opacity="1" display="inline"><path d="M 45.035 0 L 105.082 0 C 129.942 0 150.118 23.403 150.118 52.236 L 150.118 121.883 C 150.118 150.717 129.942 174.118 105.082 174.118 L 45.035 174.118 C 20.176 174.118 0 150.717 0 121.883 L 0 52.236 C 0 23.403 20.176 0 45.035 0 Z " fill-opacity="1" fill="none" stroke-opacity="1" stroke="#000000" stroke-width="5" stroke-linecap="square" stroke-linejoin="miter"></path><defs></defs></g></g></g>


</svg>