<?xml version="1.0" encoding="UTF-8" standalone="no"?>
<!DOCTYPE svg PUBLIC "-//W3C//DTD SVG 20010904//EN"
              "http://www.w3.org/TR/2001/REC-SVG-20010904/DTD/svg10.dtd">

<svg xmlns="http://www.w3.org/2000/svg"
     width="2.91111in" height="3.95556in"
     viewBox="0 0 262 356">
  <path id="Importierter Pfad"
        fill="none" stroke="black" stroke-width="1"
        d="M 23.79,179.31
           C 23.79,179.31 23.79,277.98 23.79,277.98
             23.79,318.84 52.38,351.99 87.60,351.99
             87.60,351.99 172.67,351.99 172.67,351.99
             207.90,351.99 236.48,318.84 236.48,277.98
             236.48,277.98 236.48,179.31 236.48,179.31
             236.48,138.46 207.90,105.30 172.67,105.30
             172.67,105.30 87.60,105.30 87.60,105.30
             52.38,105.30 23.79,138.46 23.79,179.31 Z
           M 0.63,184.81
           C 0.63,184.81 9.63,113.97 9.63,113.97
             9.63,113.97 37.96,85.63 37.96,85.63
             37.96,85.63 52.13,99.80 52.13,99.80
             52.13,99.80 72.63,47.30 72.63,47.30
             72.63,47.30 80.47,94.30 80.47,94.30
             80.47,94.30 102.63,35.30 102.63,35.30
             102.63,35.30 115.14,47.30 115.14,47.30
             115.14,47.30 122.97,0.63 122.97,0.63
             122.97,0.63 143.47,6.29 143.47,6.29
             143.47,6.29 171.64,52.30 171.64,52.30
             171.64,52.30 171.64,28.96 171.64,28.96
             171.64,28.96 198.73,99.80 198.73,99.80
             198.73,99.80 198.73,47.30 198.73,47.30
             198.73,47.30 213.64,99.80 213.64,99.80
             213.64,99.80 222.15,85.63 222.15,85.63
             222.15,85.63 250.48,128.14 250.48,128.14
             250.48,128.14 260.65,184.81 260.65,184.81
             260.65,184.81 236.31,227.31 236.31,227.31
             236.31,227.31 236.31,170.64 236.31,170.64
             236.31,170.64 193.81,156.47 193.81,156.47
             193.81,156.47 143.47,170.64 143.47,170.64
             143.47,170.64 108.80,170.64 108.80,170.64
             108.80,170.64 53.63,156.47 53.63,156.47
             53.63,156.47 23.79,180.31 23.79,180.31
             23.79,180.31 23.79,227.31 23.79,227.31
             23.79,227.31 0.63,184.81 0.63,184.81 Z
           M 53.46,298.64
           C 53.46,298.64 100.80,319.15 100.80,319.15
             100.80,319.15 205.14,302.23 205.14,302.23
             205.14,302.23 198.56,293.77 198.56,293.77
             198.56,293.77 100.80,302.23 100.80,302.23
             100.80,302.23 66.47,289.48 66.47,289.48
             66.47,289.48 53.46,298.64 53.46,298.64 Z
           M 59.88,269.82
           C 59.88,269.82 78.08,269.82 78.08,269.82
             84.28,247.35 104.87,230.85 129.30,230.85
             153.74,230.85 174.32,247.35 180.52,269.82
             180.52,269.82 198.73,269.82 198.73,269.82
             192.16,237.49 163.57,213.14 129.30,213.14
             95.04,213.14 66.45,237.49 59.88,269.82 Z
           M 143.47,210.31
           C 143.47,210.31 143.47,244.31 143.47,244.31
             143.47,258.39 154.90,269.82 168.97,269.82
             168.97,269.82 202.98,269.82 202.98,269.82
             217.05,269.82 228.48,258.39 228.48,244.31
             228.48,244.31 228.48,210.31 228.48,210.31
             228.48,196.23 217.05,184.81 202.98,184.81
             202.98,184.81 168.97,184.81 168.97,184.81
             154.90,184.81 143.47,196.23 143.47,210.31 Z
           M 30.13,210.31
           C 30.13,210.31 30.13,244.31 30.13,244.31
             30.13,258.39 41.55,269.82 55.63,269.82
             55.63,269.82 89.63,269.82 89.63,269.82
             103.71,269.82 115.14,258.39 115.14,244.31
             115.14,244.31 115.14,210.31 115.14,210.31
             115.14,196.23 103.71,184.81 89.63,184.81
             89.63,184.81 55.63,184.81 55.63,184.81
             41.55,184.81 30.13,196.23 30.13,210.31 Z" />
</svg>
