<?xml version="1.0" encoding="UTF-8" standalone="no"?>
<!DOCTYPE svg PUBLIC "-//W3C//DTD SVG 20010904//EN"
              "http://www.w3.org/TR/2001/REC-SVG-20010904/DTD/svg10.dtd">

<svg xmlns="http://www.w3.org/2000/svg"
     width="2.91111in" height="3.95556in"
     viewBox="0 0 262 356">
  <path id="Auswahl"
        fill="none" stroke="black" stroke-width="1"
        d="M 143.79,5.85
           C 146.51,7.78 150.34,14.86 152.32,18.00
             152.32,18.00 171.00,48.00 171.00,48.00
             171.00,48.00 171.00,28.00 171.00,28.00
             174.79,30.84 178.15,42.17 179.95,47.00
             179.95,47.00 198.00,93.00 198.00,93.00
             198.00,93.00 198.00,47.00 198.00,47.00
             201.78,49.89 202.59,56.53 203.86,61.00
             203.86,61.00 214.00,96.00 214.00,96.00
             214.00,96.00 221.00,84.00 221.00,84.00
             221.00,84.00 223.00,84.00 223.00,84.00
             223.00,84.00 250.45,126.00 250.45,126.00
             252.70,130.42 253.63,139.74 254.61,145.00
             254.61,145.00 261.30,184.00 261.30,184.00
             261.10,187.99 256.78,194.38 254.72,198.00
             254.72,198.00 237.64,229.00 237.64,229.00
             236.89,231.58 237.00,234.34 237.00,237.00
             237.00,237.00 237.00,285.00 237.00,285.00
             236.90,292.95 234.77,301.59 231.94,309.00
             224.53,328.35 209.18,344.80 189.00,350.79
             178.29,353.97 162.45,353.00 151.00,353.00
             151.00,353.00 88.00,353.00 88.00,353.00
             80.04,352.99 74.50,352.03 67.00,349.31
             60.64,346.99 55.24,343.83 50.00,339.54
             17.05,312.54 23.06,273.69 22.79,236.00
             23.00,233.88 23.08,231.02 22.79,229.00
             22.79,229.00 0.65,187.00 0.65,187.00
             -0.96,181.64 2.22,164.51 2.95,158.00
             2.95,158.00 6.87,127.00 6.87,127.00
             7.33,123.72 8.09,115.52 9.31,113.00
             10.99,109.56 16.17,104.83 19.00,102.00
             24.44,96.56 32.03,88.27 38.00,84.00
             38.00,84.00 52.00,98.00 52.00,98.00
             52.00,98.00 64.40,65.00 64.40,65.00
             64.40,65.00 73.00,45.00 73.00,45.00
             73.00,45.00 80.00,88.00 80.00,88.00
             84.01,83.78 85.73,76.46 87.81,71.00
             87.81,71.00 102.00,34.00 102.00,34.00
             102.00,34.00 115.00,45.00 115.00,45.00
             115.00,45.00 122.00,0.00 122.00,0.00
             126.44,0.22 140.36,3.42 143.79,5.85 Z
           M 205.00,161.12
           C 201.52,160.04 197.61,158.21 194.00,158.18
             190.11,158.15 181.10,160.98 177.00,162.14
             177.00,162.14 145.00,171.10 145.00,171.10
             138.93,172.55 122.07,172.08 115.00,172.00
             105.79,171.89 82.35,164.71 72.00,162.13
             68.20,161.18 57.25,157.87 54.00,158.60
             50.31,159.43 41.39,167.29 38.00,170.00
             29.72,176.62 25.02,177.30 25.00,188.00
             25.00,188.00 25.00,281.00 25.00,281.00
             25.06,316.84 51.51,350.94 89.00,351.00
             89.00,351.00 152.00,351.00 152.00,351.00
             164.48,351.00 178.05,352.17 190.00,348.25
             209.44,341.88 224.03,324.96 230.66,306.00
             233.55,297.72 234.99,290.79 235.00,282.00
             235.00,282.00 235.00,171.00 235.00,171.00
             235.00,171.00 205.00,161.12 205.00,161.12 Z
           M 117.60,234.56
           C 114.59,237.77 117.16,244.28 115.07,252.00
             111.24,266.17 99.43,270.98 86.00,271.00
             86.00,271.00 60.00,271.00 60.00,271.00
             55.59,270.99 52.32,270.93 48.00,269.70
             29.46,264.43 29.00,249.89 29.00,234.00
             29.00,234.00 29.00,214.00 29.00,214.00
             29.03,197.46 36.98,184.22 55.00,184.00
             55.00,184.00 78.00,184.00 78.00,184.00
             94.16,184.00 108.54,183.08 114.90,202.00
             116.21,205.91 116.00,208.97 116.00,213.00
             116.00,213.00 125.00,212.09 125.00,212.09
             125.00,212.09 142.00,213.00 142.00,213.00
             142.28,209.49 142.96,204.28 144.11,201.00
             151.36,180.15 172.59,184.00 190.00,184.00
             200.97,184.00 212.04,182.37 220.91,190.33
             230.03,198.52 229.00,207.03 229.00,218.00
             229.00,218.00 229.00,244.00 229.00,244.00
             228.99,247.56 229.12,250.58 227.87,254.00
             220.55,273.93 198.86,271.00 182.00,271.00
             172.47,271.00 162.37,272.05 154.04,266.45
             141.96,258.33 142.00,246.04 142.00,233.00
             136.22,232.73 121.86,230.00 117.60,234.56 Z
           M 70.00,289.48
           C 70.00,289.48 103.00,300.88 103.00,300.88
             103.00,300.88 124.00,299.09 124.00,299.09
             124.00,299.09 174.00,294.91 174.00,294.91
             179.07,294.54 196.11,291.93 199.70,294.02
             202.33,295.56 205.35,300.39 207.00,303.00
             207.00,303.00 137.00,314.41 137.00,314.41
             137.00,314.41 101.00,319.78 101.00,319.78
             101.00,319.78 84.00,313.28 84.00,313.28
             84.00,313.28 52.00,299.00 52.00,299.00
             55.82,294.49 63.76,287.69 70.00,289.48 Z" />
</svg>
